<svg width="64" height="64" viewBox="0 0 24 24" fill="none" xmlns="http://www.w3.org/2000/svg">
  <path d="M12 4.5C12 4.5 11 2 8.5 2C6 2 4 4 4 6.5C4 7 4.1 7.5 4.3 8C2.5 8.5 1.5 10 1.5 11.5C1.5 13.5 3 15 5 15.5C4.5 16.5 4.5 17.5 4.5 18.5C4.5 20.5 6 22 8 22C9.5 22 10.5 21 11 20" stroke="#1d4ed8" stroke-width="2" stroke-linecap="round" stroke-linejoin="round"/>
  <path d="M12 4.5C12 4.5 13 2 15.5 2C18 2 20 4 20 6.5C20 7 19.9 7.5 19.7 8C21.5 8.5 22.5 10 22.5 11.5C22.5 13.5 21 15 19 15.5C19.5 16.5 19.5 17.5 19.5 18.5C19.5 20.5 18 22 16 22C14.5 22 13.5 21 13 20" stroke="#1d4ed8" stroke-width="2" stroke-linecap="round" stroke-linejoin="round"/>
  <path d="M12 6V18" stroke="#1d4ed8" stroke-width="1.5" stroke-linecap="round" stroke-dasharray="2 2"/>
</svg>
